<?xml version="1.0" standalone="no"?>
<!DOCTYPE svg PUBLIC "-//W3C//DTD SVG 20010904//EN"
 "http://www.w3.org/TR/2001/REC-SVG-20010904/DTD/svg10.dtd">
<svg version="1.0" xmlns="http://www.w3.org/2000/svg"
 width="300.000000pt" height="300.000000pt" viewBox="0 0 300.000000 300.000000"
 preserveAspectRatio="xMidYMid meet">
<metadata>
Created by potrace 1.11, written by Peter Selinger 2001-2013
</metadata>
<g transform="translate(0.000000,300.000000) scale(0.100000,-0.100000)"
fill="#000000" stroke="none">
<path d="M1034 2929 c-51 -19 -117 -235 -116 -384 0 -92 8 -180 17 -195 3 -5
-6 -21 -19 -37 -35 -42 -122 -213 -150 -296 -7 -22 -24 -14 -109 49 -31 24
-60 44 -63 44 -9 0 3 -91 21 -155 26 -95 56 -166 91 -220 18 -27 29 -51 24
-53 -13 -5 -68 36 -116 86 -22 23 -45 42 -49 42 -11 0 0 -101 16 -147 18 -52
64 -120 118 -173 l46 -44 -43 24 c-23 13 -42 27 -42 32 0 4 -7 8 -15 8 -40 0
9 -113 76 -175 81 -74 163 -134 257 -187 97 -55 151 -84 192 -104 56 -27 188
-65 251 -71 26 -2 55 -6 65 -8 11 -2 25 -4 32 -4 23 -2 11 -26 -40 -81 -28
-30 -70 -85 -94 -122 -32 -49 -54 -73 -84 -87 -38 -18 -156 -103 -224 -161
-32 -28 -115 -149 -135 -198 -8 -18 -19 -32 -25 -32 -15 0 -76 38 -76 47 0 5
-18 28 -41 53 -81 90 -155 225 -220 400 -116 314 -145 475 -143 790 1 144 3
179 21 285 4 22 6 43 5 47 -3 12 36 199 54 258 9 30 48 147 86 260 77 227 87
277 64 330 -50 112 -122 115 -225 11 -135 -137 -229 -356 -265 -616 -25 -174
-25 -599 -2 -721 3 -12 7 -39 10 -60 13 -81 26 -160 31 -184 22 -118 54 -263
62 -280 3 -8 7 -19 8 -25 17 -66 84 -229 133 -320 86 -159 222 -351 314 -443
125 -125 29 -112 831 -112 l697 0 10 26 c34 87 -8 167 -118 229 l-36 20 -3
115 c-1 63 -4 124 -6 135 -2 11 3 39 11 63 10 30 13 68 10 126 -5 75 -9 88
-46 147 -23 35 -38 67 -34 70 7 7 188 56 254 69 51 10 160 51 179 67 8 7 18
13 22 13 3 0 34 17 69 37 162 94 293 305 322 516 5 42 2 45 -22 19 -10 -10
-14 -13 -11 -7 16 25 35 150 30 190 -1 6 -11 -1 -22 -15 l-20 -25 7 35 c19 90
6 273 -24 326 -9 16 -10 15 -16 -4 -4 -11 -9 -30 -11 -41 -28 -126 -32 -130
-55 -56 -7 22 -31 78 -53 125 -35 73 -40 92 -37 140 14 213 -7 342 -82 497
-31 66 -41 77 -76 88 -19 5 -31 -1 -65 -37 -23 -23 -50 -53 -58 -66 -16 -21
-49 -22 -49 -1 0 18 -51 9 -100 -18 -48 -26 -89 -63 -150 -135 -18 -21 -35
-36 -39 -34 -4 3 -27 7 -50 10 -24 3 -51 11 -60 19 -42 35 -209 86 -328 101
-42 6 -73 -23 -73 -70 l0 -35 -74 65 c-96 83 -144 118 -231 166 -85 46 -162
70 -191 59z"/>
</g>
</svg>
